<svg width="500" height="400" viewBox="0 0 500 400" fill="none" xmlns="http://www.w3.org/2000/svg">
<path d="M500 341.45H0V341.7H500V341.45Z" fill="#EBEBEB"/>
<path d="M449.9 357.54H416.78V357.79H449.9V357.54Z" fill="#EBEBEB"/>
<path d="M331.22 360.26H322.53V360.51H331.22V360.26Z" fill="#EBEBEB"/>
<path d="M415.78 348.26H396.59V348.51H415.78V348.26Z" fill="#EBEBEB"/>
<path d="M95.65 349.94H52.46V350.19H95.65V349.94Z" fill="#EBEBEB"/>
<path d="M110.89 349.94H104.56V350.19H110.89V349.94Z" fill="#EBEBEB"/>
<path d="M225.15 354.16H131.47V354.41H225.15V354.16Z" fill="#EBEBEB"/>
<path d="M237.01 296.85H43.91C40.76 296.85 38.2 294.29 38.2 291.14V19.71C38.2 16.56 40.76 14 43.91 14H237.01C240.16 14 242.72 16.56 242.72 19.71V291.14C242.72 294.29 240.16 296.85 237.01 296.85ZM43.91 14.25C40.9 14.25 38.45 16.7 38.45 19.71V291.14C38.45 294.15 40.9 296.6 43.91 296.6H237.01C240.02 296.6 242.47 294.15 242.47 291.14V19.71C242.47 16.7 240.02 14.25 237.01 14.25H43.91Z" fill="#EBEBEB"/>
<path d="M453.31 296.85H260.21C257.06 296.85 254.5 294.29 254.5 291.14V19.71C254.5 16.56 257.06 14 260.21 14H453.31C456.46 14 459.02 16.56 459.02 19.71V291.14C459.02 294.29 456.46 296.85 453.31 296.85ZM260.21 14.25C257.2 14.25 254.75 16.7 254.75 19.71V291.14C254.75 294.15 257.2 296.6 260.21 296.6H453.31C456.32 296.6 458.77 294.15 458.77 291.14V19.71C458.77 16.7 456.32 14.25 453.31 14.25H260.21Z" fill="#EBEBEB"/>
<path d="M179.14 201.73L410.83 201.73V47.66L179.14 47.66L179.14 201.73Z" fill="#E6E6E6"/>
<path d="M175.55 201.73L407.24 201.73V47.66L175.55 47.66L175.55 201.73Z" fill="#F5F5F5"/>
<path d="M400.81 194.5V54.89L181.99 54.89V194.5H400.81Z" fill="white"/>
<path d="M184.69 194.51V54.9H181.98V194.51H184.69Z" fill="#E6E6E6"/>
<path d="M178.21 160.81L404.58 160.81V151.1L178.21 151.1V160.81Z" fill="#F5F5F5"/>
<g opacity="0.4">
<path d="M190.23 40.06H168.36V170.4H190.23V40.06Z" fill="#E6E6E6"/>
<path d="M190.24 159.92H201.08L201.08 40.05H190.24V159.92Z" fill="#F5F5F5"/>
<path d="M222.95 40.06H201.08V170.4H222.95V40.06Z" fill="#E6E6E6"/>
<path d="M222.96 159.92H233.8L233.8 40.05H222.96V159.92Z" fill="#F5F5F5"/>
<path d="M255.67 40.06H233.8V170.4H255.67V40.06Z" fill="#E6E6E6"/>
<path d="M255.68 159.92H266.52V40.05H255.68V159.92Z" fill="#F5F5F5"/>
<path d="M288.39 40.06H266.52V170.4H288.39V40.06Z" fill="#E6E6E6"/>
<path d="M288.4 159.92H299.24V40.05H288.4V159.92Z" fill="#F5F5F5"/>
<path d="M321.11 40.06H299.24V170.4H321.11V40.06Z" fill="#E6E6E6"/>
<path d="M321.11 159.92H331.95V40.05H321.11V159.92Z" fill="#F5F5F5"/>
<path d="M353.82 40.06H331.95V170.4H353.82V40.06Z" fill="#E6E6E6"/>
<path d="M353.83 159.92H364.67V40.05H353.83V159.92Z" fill="#F5F5F5"/>
<path d="M386.54 40.06H364.67V170.4H386.54V40.06Z" fill="#E6E6E6"/>
<path d="M386.55 159.92H397.39V40.05H386.55V159.92Z" fill="#F5F5F5"/>
<path d="M419.26 40.06H397.39V170.4H419.26V40.06Z" fill="#E6E6E6"/>
</g>
<path d="M82.7901 341.44H134.08V236.04H82.7901L82.7901 341.44Z" fill="#EBEBEB"/>
<path d="M92.53 341.45H82.79V319.98H102.75L92.53 341.45Z" fill="#F5F5F5"/>
<path d="M375.43 341.44H426.72V236.04H375.43V341.44Z" fill="#EBEBEB"/>
<path d="M82.7901 328.27L383.93 328.27V236.04L82.7901 236.04V328.27Z" fill="#F5F5F5"/>
<path d="M373.92 302.26H284.65C284.2 302.26 283.83 301.89 283.83 301.44V243.08C283.83 242.63 284.2 242.26 284.65 242.26H301.14C301.32 242.26 301.49 242.32 301.63 242.42C304 244.17 306.7 245.56 309.68 246.55C313.09 247.69 316.72 248.27 320.46 248.27H338.12C345.17 248.27 351.86 246.19 356.95 242.42C357.09 242.32 357.26 242.26 357.44 242.26H373.92C374.37 242.26 374.74 242.63 374.74 243.08V301.44C374.74 301.89 374.37 302.26 373.92 302.26ZM285.47 300.62H373.1V243.9H357.7C352.36 247.78 345.42 249.91 338.11 249.91H320.45C316.53 249.91 312.73 249.3 309.15 248.11C306.1 247.1 303.32 245.68 300.86 243.91H285.46V300.63L285.47 300.62Z" fill="#E6E6E6"/>
<path d="M277.99 302.26H188.72C188.27 302.26 187.9 301.89 187.9 301.44V243.08C187.9 242.63 188.27 242.26 188.72 242.26H204.31C204.49 242.26 204.66 242.32 204.8 242.42C207.18 244.18 209.89 245.57 212.85 246.55C216.26 247.69 219.89 248.27 223.63 248.27H241.29C248.33 248.27 255.01 246.19 260.1 242.42C260.24 242.32 260.41 242.26 260.59 242.26H277.99C278.44 242.26 278.81 242.63 278.81 243.08V301.44C278.81 301.89 278.44 302.26 277.99 302.26ZM189.54 300.62H277.17V243.9H260.86C255.52 247.78 248.58 249.91 241.29 249.91H223.63C219.71 249.91 215.91 249.3 212.33 248.11C209.3 247.11 206.51 245.69 204.04 243.91H189.54V300.63V300.62Z" fill="#E6E6E6"/>
<path d="M182.07 302.26H92.8C92.35 302.26 91.98 301.89 91.98 301.44V243.08C91.98 242.63 92.35 242.26 92.8 242.26H108.39C108.57 242.26 108.74 242.32 108.88 242.42C111.25 244.17 113.96 245.56 116.93 246.55C120.34 247.69 123.97 248.27 127.71 248.27H145.37C152.42 248.27 159.11 246.19 164.2 242.42C164.34 242.32 164.51 242.26 164.69 242.26H182.07C182.52 242.26 182.89 242.63 182.89 243.08V301.44C182.89 301.89 182.52 302.26 182.07 302.26ZM93.62 300.62H181.25V243.9H164.96C159.62 247.78 152.68 249.91 145.37 249.91H127.71C123.79 249.91 119.99 249.3 116.41 248.11C113.36 247.1 110.58 245.68 108.12 243.91H93.62V300.63V300.62Z" fill="#E6E6E6"/>
<path d="M374.19 341.45H383.93V319.98H363.98L374.19 341.45Z" fill="#F5F5F5"/>
<path d="M143.94 218.39H135.85C135.9 212.79 135.82 198.57 135.28 166C134.3 106.96 132.41 103.36 132.41 103.36L142.02 132.5C144.28 139.36 145.64 146.49 145.96 153.7C146.98 176.42 143.01 194.56 143.93 218.39H143.94Z" fill="#E6E6E6"/>
<path d="M150.09 123.71C160.88 107.38 182.42 98.86 204.44 90.83C213.08 87.68 188.82 126.75 171.18 144.47C157.48 158.23 144.23 157.92 140.25 171.52C139.49 155.73 140.79 137.77 150.08 123.7L150.09 123.71Z" fill="#E6E6E6"/>
<path d="M137.73 113.22C129.27 94.12 107.9 69.35 83.88 51.91C74.45 45.06 97.72 103.87 114.13 127.96C126.91 146.72 138.83 158.14 140.69 171.52C148.75 154.78 146.18 132.31 137.73 113.22Z" fill="#E6E6E6"/>
<path d="M138.53 236.05C148.02 236.05 155.87 228.64 156.41 219.16L157.99 202.97H119.06L120.64 219.16C121.19 228.64 129.03 236.05 138.52 236.05H138.53Z" fill="#F0F0F0"/>
<path d="M116.54 203.06H160.52L161.78 197.3H115.28L116.54 203.06Z" fill="#F0F0F0"/>
<path d="M118.71 212.92H158.35L159.48 207.17H117.57L118.71 212.92Z" fill="#F0F0F0"/>
<path d="M250 386.61C357.082 386.61 443.89 381.542 443.89 375.29C443.89 369.038 357.082 363.97 250 363.97C142.917 363.97 56.1099 369.038 56.1099 375.29C56.1099 381.542 142.917 386.61 250 386.61Z" fill="#F5F5F5"/>
<path d="M405.28 277.38H94.71V312.54H405.28V277.38Z" fill="#156DF2"/>
<path opacity="0.3" d="M405.29 277.38H338.67V312.54H405.29V277.38Z" fill="#22272E"/>
<path d="M129 312.54H94.71V375.29H129V312.54Z" fill="#156DF2"/>
<path opacity="0.3" d="M94.71 312.54V316.05L119 323.38V375.29H129V312.54H94.71Z" fill="#22272E"/>
<path d="M405.29 312.54H371V375.29H405.29V312.54Z" fill="#156DF2"/>
<path opacity="0.2" d="M405.29 312.54H371V375.29H405.29V312.54Z" fill="#22272E"/>
<path opacity="0.3" d="M371 312.54V316.05L395.29 323.38V375.29H405.29V312.54H371Z" fill="#22272E"/>
<path d="M338.67 312.54H304.38V375.29H338.67V312.54Z" fill="#156DF2"/>
<path opacity="0.3" d="M304.38 312.54V316.05L328.67 323.38V375.29H338.67V312.54H304.38Z" fill="#22272E"/>
<path d="M195.62 312.54H161.33V375.29H195.62V312.54Z" fill="#156DF2"/>
<path opacity="0.2" d="M195.62 312.54H161.33V375.29H195.62V312.54Z" fill="#22272E"/>
<path opacity="0.3" d="M161.33 312.54V316.05L185.62 323.38V375.29H195.62V312.54H161.33Z" fill="#22272E"/>
<path d="M362.48 270.46H172.6C170.07 270.46 168.14 268.39 168.3 265.87L176.12 141.77C176.28 139.24 178.48 137.18 181 137.18H370.87C373.4 137.18 375.33 139.25 375.17 141.77L367.35 265.87C367.19 268.4 364.99 270.46 362.47 270.46H362.48Z" fill="#22272E"/>
<path opacity="0.6" d="M362.48 270.46H172.6C170.07 270.46 168.14 268.39 168.3 265.87L176.12 141.77C176.28 139.24 178.48 137.18 181 137.18H370.87C373.4 137.18 375.33 139.25 375.17 141.77L367.35 265.87C367.19 268.4 364.99 270.46 362.47 270.46H362.48Z" fill="#22272E"/>
<path d="M361.06 270.46H171.19C168.66 270.46 166.73 268.39 166.89 265.87L174.71 141.77C174.87 139.24 177.07 137.18 179.59 137.18H369.46C371.99 137.18 373.92 139.25 373.76 141.77L365.94 265.87C365.78 268.4 363.58 270.46 361.06 270.46Z" fill="#22272E"/>
<path d="M360.82 272.03H134.89C132.71 272.03 130.81 273.3 129.94 275.13C129.44 276.18 130.21 277.39 131.39 277.39H364.33C365.51 277.39 366.28 276.18 365.78 275.13C364.91 273.31 363.01 272.03 360.83 272.03H360.82Z" fill="#22272E"/>
<path opacity="0.6" d="M360.82 272.03H328.69C326.51 272.03 324.61 273.3 323.74 275.13C323.24 276.18 324.01 277.39 325.19 277.39H364.33C365.51 277.39 366.28 276.18 365.78 275.13C364.91 273.31 363.01 272.03 360.83 272.03H360.82Z" fill="#22272E"/>
<path d="M340.9 275.94H332.61C332.21 275.94 331.88 275.61 331.88 275.21C331.88 274.81 332.21 274.48 332.61 274.48H340.9C341.3 274.48 341.63 274.81 341.63 275.21C341.63 275.61 341.3 275.94 340.9 275.94Z" fill="#156DF2"/>
<path opacity="0.7" d="M234.17 275.94H225.88C225.48 275.94 225.15 275.61 225.15 275.21C225.15 274.81 225.48 274.48 225.88 274.48H234.17C234.57 274.48 234.9 274.81 234.9 275.21C234.9 275.61 234.57 275.94 234.17 275.94Z" fill="white"/>
<path d="M349.48 274.48H344.06C343.729 274.48 343.46 274.749 343.46 275.08V275.34C343.46 275.671 343.729 275.94 344.06 275.94H349.48C349.811 275.94 350.08 275.671 350.08 275.34V275.08C350.08 274.749 349.811 274.48 349.48 274.48Z" fill="#156DF2"/>
<path d="M171.16 261.38L178.42 146.26C178.48 145.28 179.34 144.47 180.32 144.47H367.8C368.78 144.47 369.54 145.28 369.48 146.26L362.22 261.38C362.16 262.36 361.3 263.17 360.32 263.17H172.84C171.86 263.17 171.1 262.36 171.16 261.38Z" fill="white"/>
<path opacity="0.1" d="M277.82 140.93L215.37 259.63H169.3C168.31 259.63 167.56 258.83 167.62 257.84L174.88 142.72C174.94 141.74 175.8 140.93 176.78 140.93H277.82Z" fill="#156DF2"/>
<path opacity="0.1" d="M332.51 140.93L270.06 259.63H255.5L317.95 140.93H332.51Z" fill="#156DF2"/>
<path opacity="0.1" d="M365.94 142.72L358.68 257.84C358.62 258.83 357.76 259.63 356.78 259.63H285.81L348.26 140.93H364.26C365.25 140.93 366 141.74 365.94 142.72Z" fill="#156DF2"/>
<path opacity="0.4" d="M275.63 141.03C275.58 141.77 274.94 142.38 274.2 142.38C273.46 142.38 272.89 141.78 272.94 141.03C272.99 140.29 273.63 139.68 274.37 139.68C275.11 139.68 275.68 140.28 275.63 141.03Z" fill="white"/>
<path d="M244.65 113.44C239.18 119.7 236.02 138.88 240.08 148.33C244.13 157.77 197.13 167.22 235.91 182.55C274.69 197.88 305.69 180.11 294.47 164.22C283.25 148.33 295.68 121.87 282.69 115.19C270.95 109.15 255.62 100.88 244.66 113.44H244.65Z" fill="#22272E"/>
<path d="M233.06 190.71C231.01 197.75 228.83 204.74 226.57 211.72C224.29 218.69 221.96 225.64 219.47 232.59L218.52 235.2L218.04 236.51L217.89 236.91L217.65 237.49C217.5 237.87 217.27 238.29 217.07 238.68C216.21 240.27 214.69 241.94 212.86 242.94C211.03 243.94 209.15 244.28 207.61 244.32C204.48 244.37 202.21 243.62 200.12 242.85C198.06 242.03 196.23 241.08 194.49 240.07C187.61 235.95 181.98 231.06 176.61 225.61L180.92 220.53C182.37 221.46 183.91 222.45 185.42 223.38C186.94 224.32 188.49 225.21 190.01 226.1C193.08 227.85 196.17 229.51 199.22 230.81C200.74 231.46 202.25 232.02 203.66 232.38C205.03 232.77 206.38 232.9 206.92 232.76C207.2 232.71 207.15 232.6 206.92 232.69C206.68 232.76 206.44 233.04 206.43 233.01C206.42 232.98 206.43 233.01 206.43 232.95C206.43 232.93 206.43 232.91 206.43 232.89L206.51 232.64L206.89 231.35L207.65 228.75L213.77 207.75C215.85 200.75 217.97 193.75 220.19 186.79L233.06 190.71Z" fill="#0A51BB"/>
<path d="M180.62 220.35L169.04 216.03L173.65 228.3C173.65 228.3 181.84 229.48 185.02 225.17L182.43 221.7C181.97 221.08 181.34 220.61 180.62 220.34V220.35Z" fill="#EBBEA5"/>
<path d="M158.75 219.62L163.17 229.69L173.65 228.3L169.04 216.03L158.75 219.62Z" fill="#EBBEA5"/>
<path d="M224.58 172.6C219.27 173.95 215.55 195.82 215.55 195.82L230.19 205.78C230.19 205.78 244.23 183.72 240.14 177.88C235.88 171.8 232.33 170.63 224.58 172.6Z" fill="#156DF2"/>
<path opacity="0.5" d="M224.58 172.6C219.27 173.95 215.55 195.82 215.55 195.82L230.19 205.78C230.19 205.78 244.23 183.72 240.14 177.88C235.88 171.8 232.33 170.63 224.58 172.6Z" fill="white"/>
<path opacity="0.2" d="M224.1 180.55L235.48 183.18L236.57 194.3C233.6 200.43 230.2 205.77 230.2 205.77L221.32 199.74C221.7 194.63 222.67 184 224.11 180.55H224.1Z" fill="#22272E"/>
<path d="M224.58 172.6C224.58 172.6 218.44 174.76 230.74 250.42H283.1C282.22 229.11 282.2 215.97 292.38 172.23C292.38 172.23 281.41 169.84 270.14 169.3C261.33 168.88 254.11 168.59 246.36 169.3C236.15 170.23 224.57 172.6 224.57 172.6H224.58Z" fill="#156DF2"/>
<path opacity="0.5" d="M224.58 172.6C224.58 172.6 218.44 174.76 230.74 250.42H283.1C282.22 229.11 282.2 215.97 292.38 172.23C292.38 172.23 281.41 169.84 270.14 169.3C261.33 168.88 254.11 168.59 246.36 169.3C236.15 170.23 224.57 172.6 224.57 172.6H224.58Z" fill="white"/>
<path opacity="0.2" d="M280.06 192.53L286.82 198.28C285.38 205.93 284.41 212.3 283.79 217.97C282.53 212.29 279.31 196.88 280.06 192.53Z" fill="#22272E"/>
<path d="M267.79 142.52C266.29 150.17 264.79 164.19 270.15 169.29C270.15 169.29 265.18 180.75 251.9 180.75C238.62 180.75 246.37 169.29 246.37 169.29C254.9 167.25 254.68 160.92 253.2 154.98L267.8 142.52H267.79Z" fill="#EBBEA5"/>
<path d="M268.45 166.43C267.19 168.98 263.14 174.82 251.79 176.89C251.48 176.95 251.15 176.89 250.89 176.71C248.76 175.23 247.45 172.1 248.38 168.47C248.64 167.47 247.67 166.59 246.72 166.99C245.59 167.46 244.65 168.04 244.22 168.32C244.04 168.43 243.91 168.59 243.81 168.77C242.99 170.33 239.63 177.97 249.76 182.68C249.92 182.75 250.09 182.8 250.27 182.8C256.22 182.92 266.76 181.75 273.39 169.78C273.63 169.34 273.59 168.79 273.28 168.4C272.55 167.48 271.21 166.55 270.21 165.93C269.59 165.55 268.77 165.77 268.45 166.42V166.43Z" fill="#FAFAFA"/>
<path d="M271.23 197.92L257.73 197.53C257.13 197.51 256.68 197.01 256.73 196.42L256.86 194.76C256.91 194.17 257.43 193.69 258.03 193.71L271.53 194.1C272.13 194.12 272.58 194.62 272.53 195.21L272.4 196.87C272.35 197.46 271.83 197.94 271.23 197.92Z" fill="#FAFAFA"/>
<path opacity="0.2" d="M261.84 147.61L253.2 154.98C253.56 156.39 253.83 157.81 253.93 159.2C257.19 158.73 261.67 155.15 262.01 151.74C262.18 150.04 262.11 148.4 261.83 147.61H261.84Z" fill="#22272E"/>
<path d="M277.87 128.07C275.46 140.64 274.7 146.01 267.46 151.68C256.57 160.22 241.67 154.5 240.28 141.47C239.03 129.74 243.19 111.16 256.24 107.72C269.1 104.33 280.28 115.5 277.87 128.07Z" fill="#EBBEA5"/>
<path d="M270.72 118.75C269.16 126.62 268.8 137.08 276.05 137.08C283.3 137.08 288.91 124.8 282.69 115.19C276.47 105.58 271.64 114.1 270.73 118.74L270.72 118.75Z" fill="#22272E"/>
<path d="M283.18 119.72C283.18 128.28 272.4 124.05 267.62 120.35C262.84 116.66 262.58 117.06 253.79 117.05C245 117.03 243.18 116.44 240.57 112.22C237.96 108 238.19 105.22 244.08 106.11C249.96 107 245.02 101 249.41 97.6699C253.8 94.3399 258.97 95.1799 264.97 102.78C270.97 110.38 283.19 104.89 283.19 119.72H283.18Z" fill="#22272E"/>
<path d="M280.005 139.222C281.139 135.353 280.026 131.621 277.52 130.886C275.013 130.151 272.061 132.692 270.927 136.56C269.793 140.429 270.905 144.161 273.412 144.896C275.919 145.631 278.871 143.091 280.005 139.222Z" fill="white"/>
<path d="M259.96 148.9C257.67 148.9 255.39 148.44 253.22 147.52C253.03 147.44 252.94 147.22 253.02 147.03C253.1 146.84 253.32 146.75 253.51 146.83C257.61 148.57 262.14 148.59 266.25 146.9C270.27 145.24 273.38 142.14 275.01 138.15C278.04 129.56 281.07 118.83 277.53 112.18C276.15 109.6 273.83 107.87 270.63 107.05C270.43 107 270.31 106.79 270.36 106.59C270.41 106.39 270.61 106.27 270.82 106.32C274.23 107.2 276.71 109.05 278.19 111.82C281.87 118.73 278.8 129.66 275.71 138.4C274 142.59 270.74 145.84 266.54 147.58C264.42 148.45 262.19 148.89 259.97 148.89L259.96 148.9Z" fill="white"/>
<path opacity="0.6" d="M279.65 139.26C278.76 142.3 276.71 144.38 275.08 143.9C273.45 143.42 272.85 140.57 273.74 137.53C274.63 134.49 276.68 132.41 278.31 132.89C279.94 133.37 280.54 136.22 279.65 139.26Z" fill="#156DF2"/>
<path d="M254.288 145.86L250.37 145.104C249.681 144.972 249.015 145.422 248.883 146.111L248.839 146.337C248.706 147.025 249.157 147.691 249.845 147.824L253.763 148.58C254.452 148.713 255.118 148.262 255.251 147.574L255.294 147.348C255.427 146.659 254.977 145.993 254.288 145.86Z" fill="white"/>
<path d="M249.17 129.09C249.17 129.09 246.85 133.3 244.64 135.2C245.84 136.65 248.23 136.37 248.23 136.37L249.17 129.1V129.09Z" fill="#DE6B04"/>
<path d="M251.38 141.74C251.38 141.74 251.43 141.77 251.46 141.77C254.95 142.2 257.65 139.95 257.76 139.85C257.84 139.78 257.85 139.66 257.78 139.58C257.71 139.5 257.59 139.49 257.51 139.56C257.48 139.58 254.82 141.8 251.51 141.39C251.4 141.38 251.31 141.45 251.29 141.56C251.29 141.64 251.32 141.71 251.38 141.75V141.74Z" fill="#22272E"/>
<path d="M262.82 124.15C262.94 124.2 263.07 124.2 263.19 124.13C263.37 124.02 263.43 123.78 263.31 123.59C261.57 120.83 258.87 120.75 258.76 120.75C258.55 120.75 258.37 120.92 258.36 121.13C258.36 121.34 258.53 121.52 258.74 121.53C258.84 121.53 261.14 121.61 262.65 124C262.69 124.07 262.75 124.12 262.82 124.15Z" fill="#22272E"/>
<path d="M257.09 129.27C256.91 130.3 256.23 131.04 255.55 130.93C254.87 130.82 254.47 129.89 254.65 128.85C254.83 127.81 255.51 127.08 256.19 127.19C256.87 127.3 257.27 128.23 257.09 129.27Z" fill="#22272E"/>
<path d="M245.43 127.28C245.25 128.31 244.57 129.05 243.89 128.94C243.22 128.83 242.81 127.9 242.99 126.86C243.17 125.83 243.85 125.09 244.53 125.2C245.21 125.31 245.61 126.24 245.43 127.28Z" fill="#22272E"/>
<path d="M244.82 125.31L242.46 124.17C242.46 124.17 243.4 126.32 244.82 125.31Z" fill="#22272E"/>
<path d="M256.48 127.3L254.12 126.16C254.12 126.16 255.06 128.31 256.48 127.3Z" fill="#22272E"/>
<path d="M241.47 120.32C241.6 120.38 241.75 120.37 241.87 120.27C244.11 118.55 246.3 119.28 246.39 119.31C246.59 119.38 246.81 119.27 246.89 119.07C246.97 118.87 246.85 118.64 246.65 118.57C246.54 118.53 243.98 117.66 241.4 119.65C241.23 119.78 241.2 120.03 241.33 120.2C241.37 120.25 241.42 120.29 241.48 120.32H241.47Z" fill="#22272E"/>
<path d="M228.75 263.17C228.75 263.17 228.61 256 230.73 250.41H283.09C283.09 250.41 287.8 258.01 289.02 263.17H228.74H228.75Z" fill="#156DF2"/>
<path d="M283.89 247.34L284.31 252.03C284.49 252.39 284.06 252.76 283.46 252.76H230.49C230.02 252.76 229.63 252.53 229.6 252.23L229.13 247.54C229.1 247.22 229.51 246.94 230.02 246.94H283.05C283.44 246.94 283.78 247.1 283.9 247.33L283.89 247.34Z" fill="#156DF2"/>
<path opacity="0.3" d="M283.89 247.34L284.31 252.03C284.49 252.39 284.06 252.76 283.46 252.76H230.49C230.02 252.76 229.63 252.53 229.6 252.23L229.13 247.54C229.1 247.22 229.51 246.94 230.02 246.94H283.05C283.44 246.94 283.78 247.1 283.9 247.33L283.89 247.34Z" fill="#FAFAFA"/>
<path d="M276.76 253.27H278.18C278.46 253.27 278.68 253.12 278.66 252.95L277.99 246.86C277.97 246.68 277.72 246.54 277.44 246.54H276.02C275.74 246.54 275.52 246.69 275.54 246.86L276.21 252.95C276.23 253.13 276.48 253.27 276.76 253.27Z" fill="#156DF2"/>
<path d="M234.47 253.27H235.89C236.17 253.27 236.39 253.12 236.37 252.95L235.7 246.86C235.68 246.68 235.43 246.54 235.15 246.54H233.73C233.45 246.54 233.23 246.69 233.25 246.86L233.92 252.95C233.94 253.13 234.19 253.27 234.47 253.27Z" fill="#156DF2"/>
<path d="M255.62 253.27H257.04C257.32 253.27 257.54 253.12 257.52 252.95L256.85 246.86C256.83 246.68 256.58 246.54 256.3 246.54H254.88C254.6 246.54 254.38 246.69 254.4 246.86L255.07 252.95C255.09 253.13 255.34 253.27 255.62 253.27Z" fill="#156DF2"/>
<path d="M296.86 187C299.16 194.47 301.37 201.99 303.49 209.51L306.68 220.78L308.27 226.38L308.67 227.76L308.87 228.45L308.92 228.61V228.65C308.92 228.65 308.93 228.68 308.93 228.69L308.77 228.44C308.64 228.26 308.42 227.94 307.85 227.5C307.31 227.06 306.22 226.58 305.17 226.55C304.13 226.51 303.42 226.79 303.05 226.97C302.33 227.36 302.4 227.45 302.46 227.38C302.55 227.32 302.73 227.13 302.93 226.89C303.33 226.41 303.78 225.74 304.22 225.03C305.11 223.6 305.97 221.97 306.8 220.31C308.49 216.99 310.03 213.47 311.58 209.94C313.11 206.4 314.6 202.81 316.07 199.21C317.59 195.63 319.01 191.97 320.48 188.39L326.87 190.3C325.22 198.1 323.27 205.75 320.89 213.39C319.71 217.22 318.4 221.01 316.89 224.85C316.11 226.77 315.28 228.69 314.25 230.68C313.73 231.68 313.16 232.7 312.41 233.8C312.03 234.35 311.6 234.93 311.01 235.58C310.39 236.21 309.71 236.97 308.11 237.79C307.3 238.17 306.1 238.59 304.57 238.53C303.03 238.49 301.47 237.8 300.54 237.06C299.58 236.32 299.05 235.62 298.65 235.03C298.25 234.43 298.02 233.95 297.8 233.48C297.71 233.26 297.61 233.03 297.53 232.83L297.35 232.34L297.09 231.63L296.57 230.22C295.89 228.34 295.2 226.48 294.57 224.61C293.29 220.87 292.01 217.14 290.81 213.39C288.36 205.9 286.08 198.39 283.96 190.8L296.87 187.01L296.86 187Z" fill="#0A51BB"/>
<path d="M292.38 172.22C297.63 173.82 305.66 194.41 305.66 194.41L285.31 208.96C285.31 208.96 276.16 191.35 278.36 184.57C280.66 177.51 286.4 170.4 292.38 172.22Z" fill="#156DF2"/>
<path opacity="0.5" d="M292.38 172.22C297.63 173.82 305.66 194.41 305.66 194.41L285.31 208.96C285.31 208.96 276.16 191.35 278.36 184.57C280.66 177.51 286.4 170.4 292.38 172.22Z" fill="white"/>
<path d="M320.7 191.1L317.91 178.8L329.51 184.92C329.51 184.92 329.66 193.2 324.98 195.81L320.71 191.1H320.7Z" fill="#EBBEA5"/>
<path d="M322.77 169.04L330.17 174.28L329.51 184.92L317.91 178.8L322.77 169.04Z" fill="#EBBEA5"/>
<path d="M115.01 107.13H196.01C202.61 107.13 207.68 112.53 207.28 119.13L205.04 155.8C204.64 162.4 198.91 167.8 192.31 167.8H182.93L186.76 180.39L168.43 167.8H111.31C104.71 167.8 99.6402 162.4 100.04 155.8L102.28 119.13C102.68 112.53 108.41 107.13 115.01 107.13Z" fill="#156DF2"/>
<path d="M188.58 126.34H120.08C118.84 126.34 117.88 125.32 117.96 124.08C118.04 122.84 119.12 121.82 120.36 121.82H188.87C190.11 121.82 191.07 122.84 190.99 124.08C190.91 125.32 189.83 126.34 188.59 126.34H188.58Z" fill="white"/>
<path d="M148.04 139.73H119.26C118.02 139.73 117.06 138.71 117.14 137.47C117.22 136.23 118.3 135.21 119.54 135.21H148.32C149.56 135.21 150.52 136.23 150.44 137.47C150.36 138.71 149.28 139.73 148.04 139.73Z" fill="white"/>
<path d="M172.63 153.11H118.44C117.2 153.11 116.24 152.09 116.32 150.85C116.4 149.61 117.48 148.59 118.72 148.59H172.91C174.15 148.59 175.11 149.61 175.03 150.85C174.95 152.09 173.87 153.11 172.63 153.11Z" fill="white"/>
<path d="M169.11 139.73H157.79C156.55 139.73 155.59 138.71 155.67 137.47C155.75 136.23 156.83 135.21 158.07 135.21H169.39C170.63 135.21 171.59 136.23 171.51 137.47C171.43 138.71 170.35 139.73 169.11 139.73Z" fill="white"/>
<path d="M227.79 41.23H183.63C178.49 41.23 174.04 45.43 173.72 50.57L171.97 79.1C171.66 84.24 175.6 88.44 180.74 88.44H188.04L183.86 98.23L199.32 88.44H224.9C230.04 88.44 234.49 84.24 234.81 79.1L236.56 50.57C236.87 45.43 232.93 41.23 227.79 41.23Z" fill="#156DF2"/>
<g opacity="0.5">
<path d="M227.79 41.23H183.63C178.49 41.23 174.04 45.43 173.72 50.57L171.97 79.1C171.66 84.24 175.6 88.44 180.74 88.44H188.04L183.86 98.23L199.32 88.44H224.9C230.04 88.44 234.49 84.24 234.81 79.1L236.56 50.57C236.87 45.43 232.93 41.23 227.79 41.23Z" fill="#FAFAFA"/>
</g>
<path d="M206.5 69.5099C206.23 70.7999 205.01 71.7199 203.7 71.7199H201.09C201.12 70.9799 201.14 70.5299 201.15 70.3599C201.25 68.6899 201.61 67.3099 202.23 66.2299C202.85 65.1499 204.03 63.9399 205.77 62.5899C207.51 61.2399 208.56 60.3599 208.91 59.9399C209.45 59.2799 209.74 58.5499 209.79 57.7499C209.86 56.6399 209.47 55.6999 208.64 54.9099C207.8 54.1199 206.64 53.7299 205.14 53.7299C203.64 53.7299 202.46 54.1399 201.44 54.9599C200.85 55.4399 200.35 56.0599 199.94 56.8299C199.36 57.9199 198.22 58.5999 197.04 58.4499C195.21 58.2199 194.23 56.2199 195.2 54.5799C195.77 53.6099 196.53 52.7299 197.49 51.9199C199.5 50.2299 202.06 49.3899 205.16 49.3899C208.43 49.3899 210.97 50.2399 212.8 51.9499C214.63 53.6599 215.47 55.6399 215.33 57.9099C215.25 59.1599 214.83 60.3499 214.05 61.4699C213.27 62.5899 211.66 64.1099 209.23 66.0399C207.97 67.0399 207.17 67.8399 206.85 68.4499C206.71 68.7099 206.59 69.0599 206.5 69.4899V69.5099ZM200.79 76.6899L200.81 76.3799C200.9 74.8999 202.18 73.6899 203.66 73.6899H203.98C205.46 73.6899 206.59 74.8899 206.5 76.3799L206.48 76.6899C206.39 78.1699 205.11 79.3799 203.63 79.3799H203.31C201.83 79.3799 200.7 78.1799 200.79 76.6899Z" fill="white"/>
</svg>
