<svg width="24" height="24" viewBox="0 0 24 24" fill="none" xmlns="http://www.w3.org/2000/svg">
<path d="M15.4873 6.53694L17.5003 6.53694C17.5003 7.63694 17.5003 8.70894 17.5003 9.77594C17.4903 12.0289 17.5733 14.2879 17.4393 16.5349C17.3683 17.3613 17.1096 18.1605 16.6829 18.8716C16.2562 19.5828 15.6728 20.1872 14.9771 20.6387C14.2814 21.0901 13.4918 21.3768 12.6685 21.4769C11.8452 21.5769 11.0099 21.4877 10.2263 21.2159C9.15264 20.8454 8.21972 20.1521 7.55524 19.2309C6.89076 18.3097 6.5272 17.2057 6.51431 16.0699C6.47031 12.5739 6.48731 9.07694 6.50731 5.57994C6.47941 4.82443 6.6762 4.07762 7.07278 3.43397C7.46937 2.79031 8.04794 2.27873 8.73531 1.96394C9.36323 1.62745 10.0731 1.47425 10.7839 1.52181C11.4947 1.56938 12.1778 1.81579 12.7553 2.23294C13.3205 2.60816 13.7786 3.12376 14.0847 3.72924C14.3908 4.33472 14.5343 5.00931 14.5013 5.68694C14.4873 8.00394 14.5013 10.3209 14.5013 12.6379C14.5013 13.1639 14.5283 13.6929 14.4923 14.2159C14.44 14.8412 14.1569 15.4247 13.6981 15.8528C13.2394 16.2809 12.6377 16.523 12.0103 16.5319C11.3914 16.5482 10.7896 16.3273 10.3282 15.9144C9.86681 15.5015 9.58065 14.9279 9.52831 14.3109C9.45731 11.7459 9.50731 9.17694 9.50731 6.55394L11.4773 6.55394C11.4913 6.77994 11.5193 7.02194 11.5203 7.26394C11.5203 9.43394 11.5113 11.6039 11.5393 13.7729C11.5393 14.0059 11.7263 14.3899 11.8993 14.4379C12.3993 14.5759 12.4793 14.1879 12.4763 13.7899C12.467 12.1233 12.4583 10.4599 12.4503 8.79994C12.4503 7.74694 12.4593 6.69394 12.4433 5.64194C12.4639 5.37831 12.4288 5.11329 12.3403 4.86412C12.2517 4.61494 12.1118 4.38718 11.9295 4.19563C11.7472 4.00408 11.5266 3.85303 11.2821 3.7523C11.0376 3.65157 10.7746 3.60341 10.5103 3.61094C10.2453 3.6029 9.98153 3.65027 9.73588 3.75001C9.49022 3.84975 9.26809 3.99968 9.0837 4.19019C8.89931 4.3807 8.75671 4.6076 8.66504 4.85638C8.57336 5.10516 8.53463 5.37034 8.55131 5.63494C8.53731 9.06794 8.52631 12.5019 8.55131 15.9349C8.52994 16.3952 8.60407 16.8548 8.76903 17.285C8.93398 17.7151 9.1862 18.1065 9.5098 18.4344C9.8334 18.7623 10.2214 19.0197 10.6493 19.1903C11.0772 19.361 11.5359 19.4412 11.9963 19.4259C12.4666 19.439 12.9344 19.3532 13.3695 19.1742C13.8046 18.9952 14.1974 18.727 14.5224 18.3868C14.8474 18.0466 15.0975 17.642 15.2564 17.1992C15.4154 16.7564 15.4797 16.2852 15.4453 15.8159C15.4453 12.9299 15.45 10.0443 15.4593 7.15894C15.4593 6.97294 15.4753 6.78694 15.4863 6.54194" fill="currentColor"/>
</svg>
